<?xml version="1.0" encoding="UTF-8" standalone="no"?>
<svg
   width="24.000252"
   height="18.294018"
   fill="currentColor"
   class="bi bi-discord"
   viewBox="0 0 24.000252 18.294018"
   version="1.1"
   id="svg4"
   sodipodi:docname="discord.svg"
   inkscape:version="1.2.1 (9c6d41e410, 2022-07-14)"
   xmlns:inkscape="http://www.inkscape.org/namespaces/inkscape"
   xmlns:sodipodi="http://sodipodi.sourceforge.net/DTD/sodipodi-0.dtd"
   xmlns="http://www.w3.org/2000/svg"
   xmlns:svg="http://www.w3.org/2000/svg">
  <defs
     id="defs8" />
  <sodipodi:namedview
     id="namedview6"
     pagecolor="#ffffff"
     bordercolor="#666666"
     borderopacity="1.0"
     inkscape:showpageshadow="2"
     inkscape:pageopacity="0.0"
     inkscape:pagecheckerboard="0"
     inkscape:deskcolor="#d1d1d1"
     showgrid="false"
     inkscape:zoom="14.75"
     inkscape:cx="11.050847"
     inkscape:cy="9.1525424"
     inkscape:window-width="1920"
     inkscape:window-height="1017"
     inkscape:window-x="-8"
     inkscape:window-y="-8"
     inkscape:window-maximized="1"
     inkscape:current-layer="svg4" />
  <path
     d="m 20.317754,1.5175419 a 19.8405,19.8405 0 0 0 -4.8855,-1.51650005 0.075,0.075 0 0 0 -0.078,0.0375 c -0.2115,0.37500003 -0.4455,0.86550003 -0.609,1.24950005 a 18.285,18.285 0 0 0 -5.4870006,0 12.387,12.387 0 0 0 -0.618,-1.24950005 0.0765,0.0765 0 0 0 -0.078,-0.0375 c -1.6875,0.29100003 -3.33,0.80100003 -4.8855,1.51650005 a 0.0615,0.0615 0 0 0 -0.0315,0.027 c -3.11100005,4.6485 -3.96450005,9.1830001 -3.54600005,13.6605001 0.0015,0.021 0.015,0.042 0.0315,0.0555 a 19.914,19.914 0 0 0 5.99250005,3.03 0.075,0.075 0 0 0 0.084,-0.0285 c 0.462,-0.63 0.873,-1.2945 1.227,-1.9935 a 0.075,0.075 0 0 0 -0.015,-0.0885 0.0765,0.0765 0 0 0 -0.027,-0.0165 13.3125,13.3125 0 0 1 -1.872,-0.8925 0.075,0.075 0 0 1 -0.03,-0.099 0.0765,0.0765 0 0 1 0.0225,-0.0285 c 0.126,-0.0945 0.252,-0.1935 0.372,-0.2925 a 0.075,0.075 0 0 1 0.0765,-0.0105 c 3.9285,1.794 8.1810006,1.794 12.0615006,0 a 0.078,0.078 0 0 1 0.0795,0.0105 c 0.12,0.099 0.246,0.198 0.372,0.2925 a 0.0765,0.0765 0 0 1 -0.006,0.1275 12.381,12.381 0 0 1 -1.8735,0.891 0.075,0.075 0 0 0 -0.045,0.045 0.078,0.078 0 0 0 0.0045,0.0615 c 0.36,0.6975 0.7725,1.3635 1.2255,1.9935 a 0.075,0.075 0 0 0 0.084,0.0285 19.8525,19.8525 0 0 0 6.0015,-3.03 0.0735,0.0735 0 0 0 0.0315,-0.0555 c 0.501,-5.1765 -0.8385,-9.6735001 -3.549,-13.6590001 a 0.051,0.051 0 0 0 -0.03,-0.0285 z M 8.0207534,12.478042 c -1.1835,0 -2.157,-1.086 -2.157,-2.418 0,-1.3335001 0.9555,-2.4195001 2.157,-2.4195001 1.2105,0 2.1749996,1.095 2.1569996,2.4195001 0,1.332 -0.9554996,2.418 -2.1569996,2.418 z m 7.9740006,0 c -1.182,0 -2.157001,-1.086 -2.157001,-2.418 0,-1.3335001 0.955501,-2.4195001 2.157001,-2.4195001 1.2105,0 2.1765,1.095 2.157,2.4195001 0,1.332 -0.9465,2.418 -2.157,2.418 z"
     id="path2"
     style="stroke-width:1.5" />
</svg>
